<?xml version="1.0" encoding="utf-8"?>
<!-- Generator: Adobe Illustrator 27.8.1, SVG Export Plug-In . SVG Version: 6.00 Build 0)  -->
<svg version="1.1" id="Layer_1" xmlns="http://www.w3.org/2000/svg" xmlns:xlink="http://www.w3.org/1999/xlink" x="0px" y="0px"
	 viewBox="0 0 1080 1080" style="enable-background:new 0 0 1080 1080;" xml:space="preserve">
<style type="text/css">
	.st0{fill:#464646;}
</style>
<path class="st0" d="M1050.76,501.29c-0.2-11.07-1.7-22.01-3.23-32.93c-3.12-22.34-7.76-44.38-13.87-66.12
	c-22.24-79.22-61.44-148.95-117.28-209.33C858.9,130.76,790.07,85.84,710.3,57.65c-24.46-8.64-49.54-14.99-75.03-19.83
	c-13.83-2.62-27.72-4.82-41.72-6.24c-10.18-1.04-20.41-1.54-30.61-2.32c-2.86-0.22-5.69-0.62-8.54-0.94h-25.92
	c-2.2,0.3-4.4,0.77-6.61,0.86c-13.43,0.55-26.83,1.63-40.17,3.22c-43.07,5.12-85.05,14.92-125.36,31.03
	C244.73,108.05,158.12,181.87,97.61,285.97c-26.76,46.02-45.46,95.12-56.46,147.16c-4.1,19.41-7.43,38.96-9.09,58.75
	c-0.8,9.56-1.3,19.15-1.96,28.72c-0.27,3.83-0.58,7.65-0.95,11.47c-0.08,0.74-0.54,1.45-0.83,2.17v9.6
	c0.28,0.74,0.74,1.46,0.82,2.21c0.37,3.66,0.8,7.33,0.91,11c0.71,22.74,3.13,45.29,6.82,67.74c5.11,31.16,12.98,61.61,23.75,91.3
	c20.27,55.92,49.88,106.46,87.94,152.08c61.58,73.81,138.1,125.89,229.01,156.88c26.39,9,53.41,15.52,80.92,20.02
	c15.32,2.51,30.71,4.35,46.17,5.73c1.23,0.11,2.44,0.58,3.66,0.88h63.36c1.39-0.32,2.76-0.79,4.16-0.93
	c6.69-0.67,13.38-1.24,20.06-1.87c15.78-1.48,31.42-3.95,46.93-7.1c43.14-8.79,84.53-22.78,124.07-42.16
	c43.97-21.55,83.87-49.05,119.9-82.17c63.06-57.94,108.85-127.32,137.35-208.07c9.49-26.9,16.36-54.47,20.94-82.63
	c2.05-12.63,3.48-25.34,4.67-38.08c0.41-4.29,0.63-8.6,1.03-12.9c0.1-1.06,0.58-2.09,0.89-3.13V506.4
	C1051.36,504.7,1050.79,503,1050.76,501.29z M612.84,447c0,137.43,0,274.87-0.02,412.3c0,2.71-0.03,5.46-0.5,8.11
	c-1.32,7.43-5.95,11.41-13.48,11.91c-0.96,0.06-1.92,0.06-2.88,0.07c-29.92,0.05-59.84,0.12-89.75,0.15
	c-6.72,0.01-13.44-0.1-20.16-0.16c-0.96,0-1.92-0.04-2.88-0.09c-8.82-0.43-12.91-7.3-13.33-13.22c-0.15-2.23-0.14-4.48-0.14-6.72
	c-0.01-39.99-0.01-79.99-0.01-119.99v-86.4c0-68.47,0-136.95,0.01-205.43c0-2.56-0.1-5.13,0.16-7.67c0.63-6.06,3.53-10.55,9.5-12.61
	c1.19-0.41,2.49-0.56,3.75-0.66c1.44-0.13,2.88-0.09,4.32-0.09h107.51c1.44,0,2.89-0.01,4.32,0.07c6.37,0.33,11.23,4.26,12.78,10.42
	c0.42,1.69,0.6,3.46,0.74,5.21C612.91,443.79,612.84,445.4,612.84,447z M541.08,367.47c-45.52,0.21-82.78-38.21-82.94-82.8
	c-0.16-43.14,34.85-83.13,82.96-83.19c46.32-0.06,83.32,37.61,83.16,82.95C624.09,331.81,584.9,367.81,541.08,367.47z"/>
</svg>
