<?xml version="1.0" encoding="utf-8"?>
<!-- Generator: Adobe Illustrator 27.8.1, SVG Export Plug-In . SVG Version: 6.00 Build 0)  -->
<svg version="1.1" id="Layer_1" xmlns="http://www.w3.org/2000/svg" xmlns:xlink="http://www.w3.org/1999/xlink" x="0px" y="0px"
	 viewBox="0 0 1080 1080" style="enable-background:new 0 0 1080 1080;" xml:space="preserve">
<style type="text/css">
	.st0{fill:#464646;}
</style>
<g>
	<path class="st0" d="M826.07,1022.4c-94.97,0-189.95,0-284.92,0c-0.11-3.36-0.32-6.71-0.32-10.07c-0.02-51.04,0-102.07-0.02-153.11
		c-0.01-31.36-0.06-62.71-0.12-94.07c-0.01-5.28-0.17-10.55-1.28-15.75c-2.95-13.8-11.14-22.69-24.7-26.59
		c-4.48-1.29-9.07-1.86-13.73-1.86c-7.35,0-14.71,0-22.06,0c-34.69-0.01-69.39-0.02-104.08-0.03c-4.48,0-8.95,0.01-13.38,0.86
		c-13.09,2.51-22.34,9.79-27.45,22.16c-1.97,4.78-2.88,9.82-2.95,14.98c-0.09,6.24-0.1,12.48-0.1,18.72
		c-0.01,78.55-0.01,157.11,0,235.66c0,3.04,0.06,6.07,0.09,9.11c-25.9,0-51.8,0-77.71,0c-0.97-1.04-2.31-0.96-3.56-1.16
		c-28.1-4.52-47.95-19.89-59.58-45.79c-4.92-10.95-6.81-22.61-6.83-34.58c-0.06-35.99-0.11-71.99-0.13-107.98
		c-0.02-59.19,0-118.38-0.01-177.57c0-6.13-0.07-6.17-6.1-6.19c-16.63-0.04-33.25-0.14-49.88-0.12c-9.88,0.01-19.4-1.88-28.58-5.34
		c-41.94-15.83-69.32-60.9-54.72-111.28c3.53-12.2,9.88-22.86,18.19-32.35c3.58-4.09,7.39-7.98,11.23-11.82
		c48.03-48.09,96.08-96.16,144.12-144.24c84.44-84.51,168.86-169.03,253.32-253.52c3.61-3.62,7.35-7.13,11.24-10.45
		c9.72-8.32,20.67-14.47,33.01-17.98c3.83-1.09,7.79-1.7,11.68-2.58c1.97-0.45,4.2-0.1,5.77-1.83c5.12,0,10.23,0,15.35,0
		c1.58,1.72,3.82,1.46,5.79,1.74c16.58,2.32,31.28,8.86,44.08,19.57c4.77,3.99,9.3,8.31,13.7,12.71
		c47.92,47.93,95.8,95.91,143.69,143.87c18.07,18.1,36.13,36.21,54.21,54.3c53.56,53.6,107.14,107.17,160.66,160.81
		c15.58,15.61,30.98,31.41,46.48,47.11c7.16,7.24,12.81,15.52,16.96,24.8c3.09,6.89,5.48,13.98,5.69,21.65
		c0.02,0.7,0.56,1.39,0.86,2.09c0,8.64,0,17.28,0,25.92c-0.32,1.04-0.89,2.07-0.91,3.11c-0.05,3.4-0.78,6.65-1.76,9.88
		c-5.91,19.54-17.57,34.99-33.7,47.19c-6.93,5.25-14.65,9.09-22.9,11.85c-10.41,3.49-21.13,4.9-32.08,4.89
		c-14.71-0.01-29.42,0.03-44.12,0.04c-1.12,0-2.24-0.05-3.36,0.01c-2.74,0.16-3.42,0.77-3.47,3.46c-0.09,4.8-0.09,9.6-0.09,14.4
		c-0.04,91.99-0.08,183.98-0.11,275.96c0,5.45-0.35,10.85-1.32,16.23c-5.81,32.47-34.91,59.24-67,62.28
		C828.14,1021.58,827.11,1022.08,826.07,1022.4z"/>
</g>
</svg>
